<svg width="3972" height="1617" xmlns="http://www.w3.org/2000/svg" xmlns:xlink="http://www.w3.org/1999/xlink" xml:space="preserve" overflow="hidden"><defs><clipPath id="clip0"><rect x="206" y="460" width="3972" height="1617"/></clipPath></defs><g clip-path="url(#clip0)" transform="translate(-206 -460)"><rect x="658" y="659" width="2259" height="1378" fill="#00285A"/><path d="M2460.22 873.5 2460.22 1156.06 2456.78 1156.06 2456.78 873.5ZM2472.25 1151.48 2458.5 1178.98 2444.75 1151.48Z" fill="#F5C845"/><text fill="#F6CB4B" font-family="Intel Clear,Intel Clear_MSFontService,sans-serif" font-weight="400" font-size="73" transform="matrix(1 0 0 1 2479.42 1040)">n<tspan font-size="73" x="42.9688" y="0">ew pid</tspan></text><path d="M1.47209e-06-1.71875 398.446-1.71841 398.446 1.71909-1.47209e-06 1.71875ZM393.862-13.7497 421.362 0.000360892 393.862 13.7503Z" fill="#F5C845" transform="matrix(-1 0 0 1 1998.86 1252.5)"/><text fill="#F6CB4B" font-family="Intel Clear,Intel Clear_MSFontService,sans-serif" font-weight="400" font-size="73" transform="matrix(1 0 0 1 1587.67 1159)">page access counters</text><rect x="658" y="1178" width="919" height="148" fill="#0068B5"/><text fill="#FFFFFF" font-family="Intel Clear,Intel Clear_MSFontService,sans-serif" font-weight="400" font-size="92" transform="matrix(1 0 0 1 993.353 1282)">policy</text><path d="M2917.5 1704.78 2945 1704.8 2945 1708.24 2917.5 1708.22ZM2955.31 1704.81 2982.81 1704.84 2982.81 1708.28 2955.31 1708.25ZM2993.13 1704.85 3020.63 1704.87 3020.62 1708.31 2993.12 1708.28ZM3030.94 1704.88 3058.44 1704.9 3058.44 1708.34 3030.94 1708.32ZM3068.75 1704.91 3096.25 1704.94 3096.25 1708.37 3068.75 1708.35ZM3106.56 1704.94 3134.06 1704.97 3134.06 1708.41 3106.56 1708.38ZM3144.38 1704.98 3171.88 1705 3171.87 1708.44 3144.37 1708.42ZM3182.19 1705.01 3209.69 1705.03 3209.69 1708.47 3182.19 1708.45ZM3220 1705.04 3247.5 1705.07 3247.5 1708.5 3220 1708.48ZM3257.81 1705.08 3285.31 1705.1 3285.31 1708.54 3257.81 1708.51ZM3295.63 1705.11 3314.32 1705.12 3314.32 1708.56 3295.62 1708.55ZM3309.75 1693.09 3337.24 1706.86 3309.73 1720.59Z" fill="#F6CB4B"/><text fill="#F6CB4B" font-family="Intel Clear,Intel Clear_MSFontService,sans-serif" font-weight="400" font-size="73" transform="matrix(1 0 0 1 1587.67 1498)">move, swap out</text><rect x="1997" y="1632" width="920" height="148" fill="#0068B5"/><text fill="#FFFFFF" font-family="Intel Clear,Intel Clear_MSFontService,sans-serif" font-weight="400" font-size="92" transform="matrix(1 0 0 1 2324.42 1736)">mover</text><path d="M3338.85 1257.14 3311.35 1256.95 3311.38 1253.51 3338.87 1253.7ZM3301.04 1256.88 3273.54 1256.69 3273.56 1253.25 3301.06 1253.44ZM3263.23 1256.62 3235.73 1256.43 3235.75 1252.99 3263.25 1253.18ZM3225.42 1256.35 3197.92 1256.16 3197.94 1252.73 3225.44 1252.92ZM3187.6 1256.09 3160.1 1255.9 3160.13 1252.46 3187.63 1252.65ZM3149.79 1255.83 3122.29 1255.64 3122.32 1252.2 3149.82 1252.39ZM3111.98 1255.57 3084.48 1255.38 3084.51 1251.94 3112 1252.13ZM3074.17 1255.31 3046.67 1255.11 3046.69 1251.68 3074.19 1251.87ZM3036.36 1255.04 3008.86 1254.85 3008.88 1251.42 3036.38 1251.61ZM2998.55 1254.78 2971.05 1254.59 2971.07 1251.15 2998.57 1251.34ZM2960.73 1254.52 2940.4 1254.38 2940.43 1250.94 2960.76 1251.08ZM2944.9 1266.44 2917.5 1252.5 2945.09 1238.94Z" fill="#F6CB4B"/><rect x="1998" y="725" width="919" height="148" fill="#0068B5"/><text fill="#FFFFFF" font-family="Intel Clear,Intel Clear_MSFontService,sans-serif" font-weight="400" font-size="92" transform="matrix(1 0 0 1 2292.86 829)">watcher</text><rect x="1998" y="1178" width="919" height="148" fill="#0068B5"/><text fill="#FFFFFF" font-family="Intel Clear,Intel Clear_MSFontService,sans-serif" font-weight="400" font-size="92" transform="matrix(1 0 0 1 2312.34 1282)">tracker</text><path d="M1118.18 1324.92 1976.29 1695.37 1974.93 1698.53 1116.82 1328.08ZM1976.85 1682.51 1996.65 1706.03 1965.95 1707.76Z" fill="#F5C845"/><text fill="#F6CB4B" font-family="Intel Clear,Intel Clear_MSFontService,sans-serif" font-weight="400" font-size="73" transform="matrix(1 0 0 1 2982.86 1039)">Memory access information<tspan font-size="73" x="0" y="88">i</tspan><tspan font-size="73" x="17.7603" y="88">dlepages /</tspan><tspan font-size="73" x="363.802" y="88">softdirty / </tspan><tspan font-size="73" x="708.698" y="88">DAMON</tspan><tspan font-size="73" x="0" y="176">(debugfs, sysfs, proc)</tspan></text><rect x="658" y="658" width="807" height="215" fill="#00345B"/><text fill="#FFFFFF" font-family="Intel Clear,Intel Clear_MSFontService,sans-serif" font-weight="400" font-size="147" transform="matrix(1 0 0 1 737.757 813)">memtierd</text><path d="M3338.85 803.777 3311.35 803.61 3311.37 800.173 3338.87 800.34ZM3301.04 803.548 3273.54 803.381 3273.56 799.943 3301.06 800.11ZM3263.23 803.318 3235.73 803.151 3235.75 799.714 3263.25 799.881ZM3225.42 803.089 3197.92 802.922 3197.94 799.484 3225.44 799.651ZM3187.6 802.859 3160.11 802.692 3160.13 799.255 3187.63 799.422ZM3149.79 802.629 3122.29 802.462 3122.31 799.025 3149.81 799.192ZM3111.98 802.4 3084.48 802.233 3084.5 798.795 3112 798.962ZM3074.17 802.17 3046.67 802.003 3046.69 798.566 3074.19 798.733ZM3036.36 801.941 3008.86 801.774 3008.88 798.336 3036.38 798.503ZM2998.55 801.711 2971.05 801.544 2971.07 798.107 2998.57 798.274ZM2960.73 801.481 2940.41 801.358 2940.43 797.92 2960.75 798.044ZM2944.92 813.417 2917.5 799.5 2945.08 785.917Z" fill="#F6CB4B"/><text fill="#F6CB4B" font-family="Intel Clear,Intel Clear_MSFontService,sans-serif" font-weight="400" font-size="73" transform="matrix(1 0 0 1 2982.86 674)">Running processes<tspan font-size="73" x="0" y="88">(cgroup2, </tspan><tspan font-size="73" x="331.719" y="88">proc</tspan><tspan font-size="73" x="482.396" y="88">)</tspan></text><path d="M272.5 1250.78 300 1250.78 300 1254.22 272.5 1254.22ZM310.313 1250.78 337.813 1250.78 337.813 1254.22 310.313 1254.22ZM348.125 1250.78 375.625 1250.78 375.625 1254.22 348.125 1254.22ZM385.938 1250.78 413.438 1250.78 413.438 1254.22 385.938 1254.22ZM423.75 1250.78 451.25 1250.78 451.25 1254.22 423.75 1254.22ZM461.563 1250.78 489.063 1250.78 489.063 1254.22 461.563 1254.22ZM499.375 1250.78 526.875 1250.78 526.875 1254.22 499.375 1254.22ZM537.188 1250.78 564.688 1250.78 564.688 1254.22 537.188 1254.22ZM575 1250.78 602.5 1250.78 602.5 1254.22 575 1254.22ZM612.813 1250.78 635.969 1250.78 635.969 1254.22 612.813 1254.22ZM631.386 1238.75 658.886 1252.5 631.385 1266.25Z" fill="#F6CB4B"/><text fill="#F6CB4B" font-family="Intel Clear,Intel Clear_MSFontService,sans-serif" font-weight="400" font-size="73" transform="matrix(1 0 0 1 250.872 1015)">policy <tspan font-size="73" x="0" y="88">configuration</tspan><tspan font-size="73" x="0" y="176">(file) </tspan></text><rect x="658" y="1795" width="919" height="149" fill="#0068B5"/><text fill="#FFFFFF" font-family="Intel Clear,Intel Clear_MSFontService,sans-serif" font-weight="400" font-size="92" transform="matrix(1 0 0 1 961.27 1899)">prompt<tspan fill="#F6CB4B" font-size="73" x="-690.3" y="-161">commands</tspan><tspan fill="#F6CB4B" font-size="73" x="-690.3" y="-73">(stdin)</tspan></text><path d="M272.5 1876.78 300 1876.78 300 1880.22 272.5 1880.22ZM310.313 1876.78 337.813 1876.78 337.813 1880.22 310.313 1880.22ZM348.125 1876.78 375.625 1876.78 375.625 1880.22 348.125 1880.22ZM385.938 1876.78 413.438 1876.78 413.438 1880.22 385.938 1880.22ZM423.75 1876.78 451.25 1876.78 451.25 1880.22 423.75 1880.22ZM461.563 1876.78 489.063 1876.78 489.063 1880.22 461.563 1880.22ZM499.375 1876.78 526.875 1876.78 526.875 1880.22 499.375 1880.22ZM537.188 1876.78 564.688 1876.78 564.688 1880.22 537.188 1880.22ZM575 1876.78 602.5 1876.78 602.5 1880.22 575 1880.22ZM612.813 1876.78 637.232 1876.78 637.232 1880.22 612.813 1880.22ZM632.649 1864.75 660.149 1878.5 632.649 1892.25Z" fill="#F6CB4B"/><path d="M1.60535e-06-1.71875 27.5-1.71872 27.5 1.71878-1.60535e-06 1.71875ZM37.8125-1.71871 65.3125-1.71869 65.3125 1.71881 37.8125 1.71879ZM75.625-1.71868 103.125-1.71865 103.125 1.71885 75.625 1.71882ZM113.438-1.71864 140.938-1.71862 140.938 1.71888 113.438 1.71886ZM151.25-1.71861 178.75-1.71858 178.75 1.71892 151.25 1.71889ZM189.062-1.71857 216.562-1.71855 216.562 1.71895 189.062 1.71893ZM226.875-1.71854 254.375-1.71851 254.375 1.71899 226.875 1.71896ZM264.688-1.7185 292.188-1.71848 292.188 1.71902 264.688 1.719ZM302.5-1.71847 330-1.71844 330 1.71906 302.5 1.71903ZM340.312-1.71843 363.469-1.71841 363.469 1.71909 340.312 1.71907ZM358.885-13.7497 386.385 0.000360892 358.885 13.7503Z" fill="#F6CB4B" transform="matrix(-1 0 0 1 658.886 1912.5)"/><text fill="#F6CB4B" font-family="Intel Clear,Intel Clear_MSFontService,sans-serif" font-weight="400" font-size="73" transform="matrix(1 0 0 1 271.419 2013)">(stdout)</text><path d="M0.509508-1.64149 398.36 121.848 397.341 125.131-0.509508 1.64149ZM397.549 108.999 419.737 130.283 389.397 135.263Z" fill="#00B0F0" transform="matrix(1 0 0 -1 1577.5 1869.78)"/><text fill="#00B0F0" font-family="Intel Clear,Intel Clear_MSFontService,sans-serif" font-weight="400" font-size="73" transform="matrix(1 0 0 1 1588.14 1923)">move, swap <tspan font-size="73" x="407.344" y="0">in/out</tspan></text><path d="M0.805496-1.51831 861.336 455.01 859.725 458.047-0.805496 1.51831ZM862.925 442.233 880.774 467.268 850.037 466.526Z" fill="#00B0F0" transform="matrix(1 0 0 -1 1575.5 1799.77)"/><path d="M1.71875-1.34355e-06 1.71909 438.758-1.71841 438.758-1.71875 1.34355e-06ZM13.7503 434.175 0.000360892 461.675-13.7497 434.175Z" fill="#00B0F0" transform="matrix(1 0 0 -1 1439.5 1794.18)"/><path d="M1.44123-0.93646 588.482 902.531 585.6 904.404-1.44123 0.93646ZM596.073 892.131 599.527 922.683 573.013 907.115Z" fill="#00B0F0" transform="matrix(1 0 0 -1 1507.5 1794.18)"/><text fill="#00B0F0" font-family="Intel Clear,Intel Clear_MSFontService,sans-serif" font-weight="400" font-size="73" transform="matrix(1 0 0 1 781.783 1762)">get <tspan font-size="73" x="123.177" y="0">stats, (re)configure, control</tspan><tspan fill="#F6CB4B" font-weight="700" font-size="73" x="-530.912" y="-1211">User</tspan><tspan fill="#F6CB4B" font-weight="700" font-size="73" x="2201.07" y="-1211">System</tspan><tspan fill="#F6CB4B" font-size="73" x="2201.07" y="-265">Change process memory layout</tspan><tspan fill="#F6CB4B" font-size="73" x="2201.07" y="-177">process_madvice(..., PAGEOUT)</tspan><tspan fill="#F6CB4B" font-size="73" x="2201.07" y="-89">m</tspan><tspan fill="#F6CB4B" font-size="73" x="2265.81" y="-89">ove_pages(..., NUMA)</tspan><tspan fill="#F6CB4B" font-size="73" x="-530.911" y="-999">command </tspan><tspan fill="#F6CB4B" font-size="73" x="-530.911" y="-911">line</tspan></text><path d="M272.5 878.781 300 878.781 300 882.219 272.5 882.219ZM310.313 878.781 337.813 878.781 337.813 882.219 310.313 882.219ZM348.125 878.781 375.625 878.781 375.625 882.219 348.125 882.219ZM385.938 878.781 413.438 878.781 413.438 882.219 385.938 882.219ZM423.75 878.781 451.25 878.781 451.25 882.219 423.75 882.219ZM461.563 878.781 489.063 878.781 489.063 882.219 461.563 882.219ZM499.375 878.781 526.875 878.781 526.875 882.219 499.375 882.219ZM537.188 878.781 564.688 878.781 564.688 882.219 537.188 882.219ZM575 878.781 602.5 878.781 602.5 882.219 575 882.219ZM612.813 878.781 635.969 878.781 635.969 882.219 612.813 882.219ZM631.386 866.75 658.886 880.5 631.385 894.25Z" fill="#F6CB4B"/></g></svg>